<svg version="1.2" xmlns="http://www.w3.org/2000/svg" viewBox="0 0 1298 31" width="1298" height="31">
	<title>VectorFree-Sound-Wave-Logo-ai</title>
	<defs>
		<radialGradient id="g1" cx="0" cy="0" r="1" gradientUnits="userSpaceOnUse" gradientTransform="matrix(-770.388,0,0,-770.388,648.75,15.085)">
			<stop offset="0" stop-color="#560DF9"/>
			<stop offset="1" stop-color="#000"/>
		</radialGradient>
	</defs>
	<style>
		.s0 { mix-blend-mode: multiply;fill: url(#g1) } 
	</style>
	<g id="Vector Graphics">
		<path id="&lt;Path&gt;" class="s0" d="m1297 12.8h-87.5-1.6l-0.9-0.2-11.6-2.5-9.7 3.4-2.4 0.9-3-0.8-15.9-4.3-11.1 6.3-2.6 1.5-3.1-1.5-12.7-6.3-11.3 3.2-2.3 0.7-2.8-0.6-11.6-2.5-12.7 4.5-3 1.1-2.6-1.1-12.5-5.3-11.5 3.2-2.3 0.7-2.9-0.6-11-2.4-13.1 7.5-2.2 1.2-3.4-1.2-26.1-9.2-12.6 7.1-2.7 1.5-3-1.5-12.4-6.1-11.5 4-2.1 0.8-3.2-0.7-11-2.3-13.1 7.4-3.3 1.9-2.5-1.9-12.5-9.7-11.2 5.6-1.8 0.8-3.6-0.7-11-2.4-13.1 7.5-3.7 2-2.1-2.1-12.5-12.3-11.2 7.1-1.8 1.2-3.8-1.1-10.8-3-7.9 6.1-4.1 3.1-1.8-3.2-3.2-5.8-10.9 10-3.3 3.1-2.5-3.1-12.1-14.6-11.6 11.5-2.1 2.1-3.7-2.1-11.5-6.5-12.2 8.6-3.3 2.3-2.5-2.3-12.6-11.6-11.2 6.4-3 1.7-2.7-1.7-11.1-7.1-12.6 14.3-3.1 3.6-2.8-3.6-11.6-14.7-12 17.9-2.9 4.2-3-4.2-12-17-11.6 14.9-2.9 3.6-3-3.6-11.7-14-12 8.8-3.1 2.3-2.7-2.3-11.6-9.9-12.1 12-2.4 2.4-3.4-2.4-12.2-8.6-11.5 6.5-3.6 2-2.2-2-11.5-10.6-12.2 14.7-2.6 3.2-3.2-3.1-11-10.9-3.1 5.6-1.7 3.2-4.1-3.1-8-6.1-10.8 3-3.6 1-2-1.1-11.1-6.3-12.6 11.5-2.2 2.1-3.6-2-13.1-7.5-11 2.4-3.4 0.7-1.9-0.8-11.2-4.8-12.6 8.9-2.6 1.8-3.2-1.8-13.1-7.4-11 2.3-3.2 0.7-2.1-0.8-11.5-4-12.4 6.1-3 1.5-2.7-1.5-12.6-7.1-26.1 9.2-3.4 1.2-2.2-1.2-13.1-7.5-11 2.4-2.9 0.6-2.3-0.7-11.5-3.2-12.5 5.3-2.6 1.1-3-1.1-12.7-4.5-11.6 2.5-2.8 0.6-2.3-0.7-11.8-3.3-12.3 4.3-2.6 1-2.9-0.9-14-4.4-10 3.3-1.8 0.6-3.1-0.5-12.6-1.8-12.6 1.8-0.9 0.2h-1.3-87.5v-0.8h86.2l13.9-2 2.2-0.3 2.1 0.3 11.6 1.6 10.9-3.6 2.7-0.8 2.8 0.8 14 4.4 12.1-4.4 2.5-0.8 3 0.8 12.4 3.5 11.9-2.5 3.2-0.6 2.1 0.7 11.7 4.1 12.2-5.1 2.3-1 3.2 0.9 12.4 3.5 11.9-2.5 3.8-0.8 1.6 0.9 12.5 7.1 26.1-9.2 3.5-1.2 2.2 1.3 12 6.8 11.8-5.8 2.3-1.2 3.3 1.1 12.6 4.5 11.6-2.4 3.8-0.8 1.6 0.9 11.6 6.5 12.1-8.6 2.2-1.5 3.6 1.5 12.8 5.4 11.4-2.4 3.7-0.8 1.6 0.9 11.2 6.4 12.5-11.6 2.3-2 3.5 2 12.9 7.3 11.1-3.2 4-1.1 1.6 1.2 5.5 4.2 3.4-6.2 2.1-3.8 3.7 3.7 11.6 11.5 12.1-14.6 2.6-3 3.3 3 12.5 11.5 11.2-6.3 3.2-1.8 2.5 1.8 11.4 8.1 12.4-12.3 2.6-2.6 3.2 2.6 12 10.3 12.5-9.2 3.6-2.7 2.2 2.7 11 13.1 11.9-15.2 3-3.9 2.8 3.9 11.8 16.7 11.9-17.7 2.7-4 3.1 4 12 15.3 11.7-13.2 2.1-2.4 3.7 2.3 12 7.7 11.8-6.6 3.5-2.1 2.2 2.1 12.3 11.2 11.4-8.1 2.6-1.8 3.2 1.8 11.1 6.3 12.6-12.5 3.2-3.2 2.7 3.2 12.2 14.7 11.5-10.6 3.8-3.5 2 3.6 3.4 6.2 5.5-4.2 1.6-1.2 4 1.1 11 3.1 13-8.2 3.5-2.3 2.3 2.3 12.6 12.5 11.1-6.3 1.6-0.9 3.7 0.8 11.2 2.4 13-6.5 3.5-1.7 2.3 1.8 12.3 9.6 11.4-6.5 1.6-0.9 3.8 0.8 11.6 2.4 12.6-4.5 3.3-1.1 2.3 1.2 11.8 5.8 12-6.8 2.2-1.3 3.5 1.2 26.1 9.2 12.5-7.1 1.6-0.9 3.8 0.8 11.9 2.5 12.4-3.5 3.2-0.9 2.3 1 12.2 5.1 11.7-4.1 2.1-0.7 3.2 0.6 11.9 2.5 12.4-3.5 3.5-0.9 2.1 1 11.7 5.8 10.2-5.8 1.9-1.1 3.6 1 16.6 4.4 9.4-3.3 2.1-0.7 3.1 0.6 13.9 3h85.9z"/>
	</g>
</svg>